<?xml version="1.0" encoding="UTF-8"?>
<svg id="Layer_1" xmlns="http://www.w3.org/2000/svg" version="1.1" viewBox="0 0 560.33 222.24">
  <!-- Generator: Adobe Illustrator 29.7.1, SVG Export Plug-In . SVG Version: 2.1.1 Build 8)  -->
  <defs>
    <style>
      .st0 {
        fill: #3b4114;
      }

      .st1 {
        fill: #fff;
      }
    </style>
  </defs>
  <path class="st0" d="M168.49,49.01c-.87-20.33-17.48-36.85-37.81-37.63-11.46-.44-21.87,4.02-29.33,11.45-.49.49-1.22.65-1.85.36-2.52-1.17-5.32-1.83-8.28-1.83-8.49,0-15.7,5.39-18.44,12.93-.33.91-1.27,1.44-2.21,1.23-1.75-.38-3.56-.58-5.42-.58-9.12,0-17.73,5.01-22.25,12.94-1.28,2.24-2.21,4.68-2.76,7.2-.28,1.27-.45,2.57-.53,3.87-.11,1.76.26,3.76-1.84,4.25-1.16.27-2.3.62-3.41,1.04-2.16.83-4.21,1.96-6.06,3.34-3.65,2.72-6.54,6.41-8.31,10.6-1.86,4.41-2.44,9.3-1.68,14.02.69,4.23,2.38,8.05,4.8,11.25.74.99.64,2.35-.25,3.21-4.85,4.66-7.87,11.2-7.87,18.46,0,4.51,1.17,8.75,3.22,12.43.55.99.3,2.35-.63,2.99-5.77,3.98-9.31,10.96-8.35,18.69,1.09,8.79,8.17,15.88,16.97,16.98,6.46.81,12.38-1.54,16.48-5.68.58-.58,1.43-.8,2.21-.57.87.26,1.76.46,2.68.6,1.12.17,1.84,1.29,1.58,2.4-1.52,6.39-2.94,12.81-4.16,19.27-.98,5.18-2.95,11.01,1.29,15.26,1.78,1.78,4.24,2.88,6.77,2.88h71.71c4.73,0,8.95-3.34,9.67-8.01.53-3.46-.99-5.66-3.03-8.54l-15.19-20.5c-.44-.59-.29-1.41.32-1.83,9.48-6.6,16.19-17.5,17.83-30.18.09-.71.66-1.28,1.38-1.33,6.76-.48,11.65-2.67,11.65-12.68v-39.27c0-1.4.73-2.71,1.93-3.43,11.97-7.15,19.84-20.47,19.19-35.57Z"/>
  <g>
    <path class="st0" d="M264.99,91.06c.24,1.04-.04,2.09-.84,3.13-.72.88-1.68,1.32-2.89,1.32h-21.41c-1.12,0-1.97-.46-2.53-1.38-.56-.92-.92-1.94-1.08-3.07-.24-2.17-.72-4.87-1.44-8.12s-1.68-6.65-2.89-10.22c-1.2-3.57-2.61-7.11-4.21-10.64-1.6-3.53-3.45-6.61-5.53-9.26v.6c0,3.85.14,7.62.42,11.31.28,3.69.64,7.18,1.08,10.46.44,3.29.9,6.3,1.38,9.02.48,2.73.88,5.01,1.2,6.86.16,1.2-.12,2.25-.84,3.13-.72.88-1.68,1.32-2.89,1.32h-21.41c-1.2,0-2.16-.44-2.89-1.32-.72-.96-.96-2-.72-3.13.4-1.84.82-4.13,1.26-6.86.44-2.72.86-5.73,1.26-9.02.4-3.29.74-6.77,1.02-10.46.28-3.69.42-7.46.42-11.31s-.14-7.88-.42-11.61c-.28-3.73-.62-7.22-1.02-10.46-.4-3.25-.82-6.21-1.26-8.9-.44-2.69-.86-4.91-1.26-6.68-.24-1.12,0-2.17.72-3.13.72-.88,1.72-1.32,3.01-1.32h21.29c1.2,0,2.17.44,2.89,1.32.72.96.96,2,.72,3.13-.96,5.05-1.76,10.08-2.41,15.09-.64,5.01-1.08,10.04-1.32,15.09,1.76-1.28,3.31-2.71,4.63-4.27s2.47-3.17,3.43-4.81c.96-1.64,1.76-3.31,2.41-4.99.64-1.68,1.2-3.29,1.68-4.81.96-3.69,1.52-7.46,1.68-11.31.16-2.97,1.4-4.45,3.73-4.45h21.29c1.2,0,2.17.44,2.89,1.32.72.88,1,1.92.84,3.13-.08.32-.12.6-.12.84s-.08.48-.24.72c-.48,1.36-1.48,2.91-3.01,4.63-1.52,1.73-3.35,3.55-5.47,5.47-2.12,1.92-4.49,3.91-7.1,5.95-2.61,2.04-5.23,4.03-7.88,5.95l.12-.12c-1.61,1.04-2.17,2.89-1.68,5.53.48,2.65,1.56,5.71,3.25,9.2,1.68,3.49,3.73,7.16,6.13,11.01,2.41,3.85,4.77,7.52,7.1,11.01,2.32,3.49,4.33,6.6,6.01,9.32,1.68,2.73,2.65,4.65,2.89,5.77Z"/>
    <path class="st0" d="M297.46,91.66c.16,1.04-.12,1.94-.84,2.71-.72.76-1.68,1.14-2.89,1.14h-21.41c-1.12,0-2.06-.38-2.83-1.14-.76-.76-1.02-1.66-.78-2.71.4-1.52.82-3.43,1.26-5.71.44-2.29.86-4.83,1.26-7.64.4-2.81.74-5.79,1.02-8.96.28-3.17.42-6.35.42-9.56,0-3.37-.14-6.63-.42-9.8-.28-3.17-.62-6.13-1.02-8.9-.4-2.77-.82-5.27-1.26-7.52-.44-2.24-.86-4.13-1.26-5.65-.24-1.04.02-1.94.78-2.71.76-.76,1.74-1.14,2.95-1.14h21.29c1.12,0,2.06.38,2.83,1.14.76.76,1.02,1.67.78,2.71-.32,1.52-.72,3.41-1.2,5.65-.48,2.25-.92,4.75-1.32,7.52-.4,2.77-.74,5.73-1.02,8.9-.28,3.17-.42,6.43-.42,9.8s.14,6.4.42,9.56c.28,3.17.64,6.15,1.08,8.96.44,2.81.9,5.35,1.38,7.64s.88,4.19,1.2,5.71ZM283.03,21.78c-3.77,0-6.96-.56-9.56-1.68-2.61-1.12-3.91-2.48-3.91-4.09,0-.8.36-1.56,1.08-2.29.72-.72,1.68-1.34,2.89-1.86,1.2-.52,2.63-.94,4.27-1.26,1.64-.32,3.39-.48,5.23-.48s3.59.16,5.23.48c1.64.32,3.07.74,4.27,1.26,1.2.52,2.17,1.14,2.89,1.86.72.72,1.08,1.48,1.08,2.29,0,1.6-1.3,2.97-3.91,4.09-2.61,1.12-5.79,1.68-9.56,1.68Z"/>
    <path class="st0" d="M371.07,91.06c.24,1.04-.04,2.09-.84,3.13-.72.88-1.68,1.32-2.89,1.32h-21.41c-.8,0-1.56-.24-2.29-.72-.56-.48-.96-1.06-1.2-1.74-.24-.68-.28-1.34-.12-1.98.32-1.6.68-3.59,1.08-5.95.4-2.36.8-4.95,1.2-7.76.32-2.32.6-4.79.84-7.4.24-2.6.44-5.27.6-8v-3.13c0-1.12-.06-2.69-.18-4.69-.12-2-.44-3.93-.96-5.77-.52-1.84-1.3-3.41-2.35-4.69-1.04-1.28-2.53-1.72-4.45-1.32-1.68.32-3.11,1.06-4.27,2.23-1.16,1.16-2.11,2.51-2.83,4.03-.72,1.52-1.28,3.13-1.68,4.81-.4,1.68-.68,3.25-.84,4.69-.4,3.29-.52,6.62-.36,9.98.4,4.97.96,9.54,1.68,13.71.72,4.17,1.4,7.46,2.04,9.86.16,1.04-.12,1.94-.84,2.71-.72.76-1.68,1.14-2.89,1.14h-21.41c-1.12,0-2.07-.38-2.83-1.14-.76-.76-1.02-1.66-.78-2.71.4-1.52.82-3.43,1.26-5.71.44-2.29.86-4.83,1.26-7.64.4-2.81.74-5.79,1.02-8.96.28-3.17.42-6.35.42-9.56,0-3.37-.14-6.63-.42-9.8-.28-3.17-.62-6.13-1.02-8.9-.4-2.77-.82-5.27-1.26-7.52-.44-2.24-.86-4.13-1.26-5.65-.24-.96.02-1.84.78-2.65.76-.8,1.74-1.2,2.95-1.2h21.29c1.12,0,2.06.4,2.83,1.2.76.8,1.02,1.68.78,2.65-.16.96-.38,2.04-.66,3.25-.28,1.2-.58,2.53-.9,3.97,1.6-2.72,3.51-5.03,5.71-6.92,2.21-1.88,4.87-3.15,8-3.79,1.36-.24,2.65-.36,3.85-.36.48,0,.94.02,1.38.06.44.04.86.06,1.26.06,2.57.24,4.83.92,6.8,2.04,1.96,1.12,3.67,2.55,5.11,4.27,1.44,1.73,2.59,3.67,3.43,5.83s1.38,4.45,1.62,6.86c.16,2.17.18,4.33.06,6.5s-.18,4.33-.18,6.49.06,4.33.18,6.5.26,4.29.42,6.37c.4,4.65.92,8.9,1.56,12.75.64,3.85,1.2,6.94,1.68,9.26Z"/>
    <path class="st0" d="M432.77,78.43c.88-.4,1.68-.34,2.41.18.72.52.92,1.18.6,1.98-.56,1.52-1.44,3.21-2.65,5.05-1.2,1.85-2.83,3.59-4.87,5.23-2.04,1.64-4.57,3.03-7.58,4.15-3.01,1.12-6.67,1.68-11,1.68-5.61,0-10.36-.7-14.25-2.1-3.89-1.4-7.1-3.21-9.62-5.41-2.53-2.2-4.47-4.67-5.83-7.4-1.36-2.73-2.35-5.43-2.95-8.12-.6-2.69-.96-5.21-1.08-7.58-.12-2.36-.18-4.27-.18-5.71s.06-3.37.18-5.77c.12-2.41.48-4.99,1.08-7.76.6-2.77,1.58-5.55,2.95-8.36,1.36-2.81,3.31-5.35,5.83-7.64s5.73-4.15,9.62-5.59c3.89-1.44,8.64-2.17,14.25-2.17,4.57,0,8.48.52,11.73,1.56,3.25,1.04,5.93,2.41,8.06,4.09,2.12,1.68,3.69,3.61,4.69,5.77,1,2.17,1.54,4.41,1.62,6.74l.12-.12c0,4.09-.62,7.6-1.86,10.52-1.24,2.93-2.91,5.41-4.99,7.46-2.09,2.04-4.43,3.67-7.04,4.87-2.61,1.2-5.29,2.13-8.06,2.77-2.77.64-5.45,1.04-8.06,1.2-2.61.16-4.95.24-7.04.24,1.04,5.05,2.97,8.62,5.77,10.7,2.81,2.09,5.93,3.25,9.38,3.49,3.45.24,6.87-.12,10.28-1.08,3.41-.96,6.23-1.92,8.48-2.89ZM398.13,60.39v1.08c0,.32.04.64.12.96,3.69-.96,6.47-2.6,8.36-4.93,1.88-2.32,3.23-4.73,4.03-7.22,1.04-2.81,1.56-5.85,1.56-9.14-.24-3.13-.76-5.75-1.56-7.88-.8-2.12-1.72-3.59-2.77-4.39-1.04-.8-2.15-.84-3.31-.12-1.16.72-2.21,2.31-3.13,4.75-.92,2.45-1.7,5.88-2.34,10.28-.64,4.41-.96,9.94-.96,16.6Z"/>
  </g>
  <g>
    <path class="st0" d="M262.48,125.38c1.44,0,2.57.48,3.37,1.44.88.88,1.32,2,1.32,3.37l-.24,20.69c0,2-.24,3.53-.72,4.57-.48,1.04-1.06,1.67-1.74,1.86-.68.2-1.38.06-2.1-.42-.72-.48-1.32-1.16-1.8-2.04-1.76-3.37-3.23-6.38-4.39-9.02-1.16-2.65-2.27-4.97-3.31-6.98-.4-.8-1.08-1.64-2.04-2.53-.96-.88-2.25-1.08-3.85-.6-1.12.4-2,1.34-2.65,2.83-.64,1.49-1.12,3.03-1.44,4.63-1.12,8.1-1.73,16.2-1.8,24.3,0,3.85.14,7.62.42,11.31.28,3.69.64,7.18,1.08,10.46.44,3.29.9,6.3,1.38,9.02.48,2.73.88,5.01,1.2,6.86.16,1.2-.12,2.25-.84,3.13-.72.88-1.68,1.32-2.89,1.32h-19.85c-1.2,0-2.17-.44-2.89-1.32-.72-.96-.96-2-.72-3.13.4-1.84.82-4.13,1.26-6.86.44-2.73.86-5.73,1.26-9.02.4-3.29.74-6.77,1.02-10.46.28-3.69.42-7.46.42-11.31,0-4.09-.14-8.14-.42-12.15-.28-4.01-.7-8.06-1.26-12.15-.4-1.6-.9-3.15-1.5-4.63-.6-1.48-1.5-2.42-2.71-2.83-1.6-.48-2.89-.28-3.85.6-.96.88-1.64,1.72-2.04,2.53-.96,2.01-2.04,4.33-3.25,6.98-1.2,2.65-2.69,5.65-4.45,9.02-.48.88-1.08,1.56-1.8,2.04-.72.48-1.42.62-2.11.42-.68-.2-1.26-.82-1.74-1.86-.48-1.04-.72-2.57-.72-4.57l-.24-20.69c0-1.36.44-2.49,1.32-3.37.96-.96,2.08-1.44,3.37-1.44h61.94Z"/>
    <path class="st0" d="M338.85,205.13c.24,1.04-.04,2.09-.84,3.13-.72.88-1.68,1.32-2.89,1.32h-21.29c-.88,0-1.68-.24-2.41-.72-1.12-1.04-1.56-2.29-1.32-3.73.32-1.6.68-3.59,1.08-5.95.4-2.36.8-4.95,1.2-7.76.32-2.32.6-4.79.84-7.4.24-2.6.44-5.27.6-8v-3.13c0-1.12-.06-2.69-.18-4.69-.12-2-.42-3.93-.9-5.77-.48-1.84-1.26-3.41-2.35-4.69-1.08-1.28-2.59-1.72-4.51-1.32-1.68.32-3.11,1.06-4.27,2.23s-2.1,2.51-2.83,4.03c-.72,1.52-1.28,3.13-1.68,4.81-.4,1.68-.68,3.25-.84,4.69-.4,4.25-.48,8.48-.24,12.69.24,4.21.8,8.4,1.68,12.57.48,2.33.8,4.27.96,5.83.16,1.56.08,2.81-.24,3.73-.32.92-.9,1.58-1.74,1.98-.84.4-2.07.6-3.67.6h-18.52c-1.2,0-2.17-.44-2.89-1.32-.72-.96-.96-2-.72-3.13.4-1.84.82-4.13,1.26-6.86.44-2.73.86-5.73,1.26-9.02.4-3.29.74-6.77,1.02-10.46.28-3.69.42-7.46.42-11.31s-.14-7.88-.42-11.61c-.28-3.73-.62-7.22-1.02-10.46-.4-3.25-.82-6.21-1.26-8.9-.44-2.69-.86-4.91-1.26-6.68-.24-1.12,0-2.17.72-3.13.72-.88,1.72-1.32,3.01-1.32h21.29c1.2,0,2.17.44,2.89,1.32.72.96.96,2,.72,3.13-1.6,7.7-2.69,15.44-3.25,23.21,1.44-3.69,3.41-6.86,5.89-9.5,2.48-2.65,5.65-4.33,9.5-5.05,1.36-.24,2.65-.36,3.85-.36.48,0,.94.02,1.38.06.44.04.86.06,1.26.06,2.57.24,4.83.92,6.8,2.04,1.96,1.12,3.67,2.55,5.11,4.27,1.44,1.73,2.59,3.67,3.43,5.83.84,2.17,1.38,4.45,1.62,6.86.16,2.17.18,4.33.06,6.5s-.18,4.33-.18,6.5.06,4.33.18,6.5c.12,2.16.26,4.29.42,6.37.4,4.65.92,8.9,1.56,12.75.64,3.85,1.2,6.94,1.68,9.26Z"/>
    <path class="st0" d="M408.85,206.09c.16.88-.14,1.68-.9,2.41-.76.72-1.71,1.08-2.83,1.08h-22.85c-.56,0-1.04-.2-1.44-.6-.4-.32-.62-.74-.66-1.26-.04-.52-.02-.98.06-1.38,0-.24.04-.56.12-.96.08-.4.2-.88.36-1.44-1.28,1.61-2.97,2.95-5.05,4.03-2.09,1.08-4.89,1.62-8.42,1.62-.64,0-1.54-.02-2.71-.06-1.16-.04-2.43-.16-3.79-.36-1.36-.2-2.81-.5-4.33-.9-1.52-.4-2.97-1-4.33-1.8-2.57-1.52-4.63-3.81-6.19-6.86-1.56-3.05-2.35-7.38-2.35-12.99,0-2.57.34-5.07,1.02-7.52.68-2.44,1.9-4.59,3.67-6.43,1.12-1.12,2.36-2.08,3.73-2.89,1.36-.8,2.83-1.44,4.39-1.92,1.56-.48,3.15-.88,4.75-1.2,1.6-.32,3.13-.56,4.57-.72,2.08-.32,4.19-.5,6.31-.54,2.12-.04,4.23-.14,6.31-.3.4-.08.82-.16,1.26-.24.44-.08.86-.24,1.26-.48.56-.4,1-.86,1.32-1.38.32-.52.56-1.1.72-1.74.16-.88.2-1.8.12-2.77-.08-.96-.2-1.88-.36-2.77,0-.4-.02-.76-.06-1.08-.04-.32-.1-.68-.18-1.08-.08-.24-.34-1.06-.78-2.47-.44-1.4-1.12-2.83-2.04-4.27-.92-1.44-2.12-2.6-3.61-3.49-1.48-.88-3.31-.96-5.47-.24-1.2.4-1.94,1.74-2.22,4.03-.28,2.29-.14,5.23.42,8.84.4,2.49-.06,4.37-1.38,5.65-1.32,1.28-3.03,2.07-5.11,2.35-2.09.28-4.31.12-6.67-.48-2.37-.6-4.43-1.58-6.19-2.95-1.76-1.36-2.99-3.05-3.67-5.05-.68-2-.34-4.25,1.02-6.74,1.44-2.65,3.17-4.69,5.17-6.13,2-1.44,4.29-2.48,6.86-3.13,2.57-.64,5.37-1.02,8.42-1.14,3.05-.12,6.33-.18,9.86-.18.96,0,1.88.02,2.77.06.88.04,1.76.1,2.65.18,4.97.4,8.96,1.38,11.97,2.95s5.31,3.61,6.92,6.13c1.6,2.53,2.67,5.51,3.19,8.96.52,3.45.74,7.22.66,11.31v1.08c0,.32-.04.68-.12,1.08-.24,12.35,1,24.3,3.73,35.84.08.08.12.2.12.36ZM383.59,182.63c.08-1.04.16-2.11.24-3.19.08-1.08.08-2.14,0-3.19-.08-.96-.28-1.94-.6-2.95-.32-1-.92-1.82-1.8-2.46-1.36-1.04-3.03-1.34-4.99-.9-1.97.44-3.59,1.1-4.87,1.98-1.2.8-2.15,1.85-2.83,3.13-.68,1.28-1.18,2.63-1.5,4.03-.32,1.4-.52,2.85-.6,4.33-.08,1.48-.12,2.87-.12,4.15,0,5.29.58,9,1.74,11.13,1.16,2.12,2.99,3.19,5.47,3.19,2.08,0,3.73-.7,4.93-2.11,1.2-1.4,2.14-3.05,2.83-4.93.68-1.88,1.14-3.75,1.38-5.59.24-1.84.4-3.21.48-4.09.08-.4.12-.82.12-1.26s.04-.86.12-1.26Z"/>
    <path class="st0" d="M442.41,205.13c.16,1.2-.12,2.25-.84,3.13-.72.88-1.68,1.32-2.89,1.32h-21.41c-1.2,0-2.17-.44-2.89-1.32-.72-.96-.96-2-.72-3.13.4-1.84.82-4.13,1.26-6.86.44-2.73.86-5.73,1.26-9.02.4-3.29.74-6.77,1.02-10.46.28-3.69.42-7.46.42-11.31s-.14-7.88-.42-11.61c-.28-3.73-.62-7.22-1.02-10.46-.4-3.25-.82-6.21-1.26-8.9-.44-2.69-.86-4.91-1.26-6.68-.24-1.12,0-2.17.72-3.13.72-.88,1.72-1.32,3.01-1.32h21.29c1.2,0,2.17.44,2.89,1.32.72.96.96,2,.72,3.13-.32,1.76-.72,3.99-1.2,6.68-.48,2.69-.92,5.65-1.32,8.9-.4,3.25-.74,6.74-1.02,10.46-.28,3.73-.42,7.6-.42,11.61s.14,7.62.42,11.31c.28,3.69.64,7.18,1.08,10.46.44,3.29.9,6.3,1.38,9.02.48,2.73.88,5.01,1.2,6.86Z"/>
    <path class="st0" d="M476.69,205.73c.16,1.04-.12,1.95-.84,2.71-.72.76-1.68,1.14-2.89,1.14h-21.41c-1.12,0-2.06-.38-2.83-1.14-.76-.76-1.02-1.66-.78-2.71.4-1.52.82-3.43,1.26-5.71.44-2.29.86-4.83,1.26-7.64.4-2.81.74-5.79,1.02-8.96.28-3.17.42-6.35.42-9.56,0-3.37-.14-6.63-.42-9.8-.28-3.17-.62-6.13-1.02-8.9-.4-2.77-.82-5.27-1.26-7.52-.44-2.24-.86-4.13-1.26-5.65-.24-1.04.02-1.94.78-2.71.76-.76,1.74-1.14,2.95-1.14h21.29c1.12,0,2.06.38,2.83,1.14.76.76,1.02,1.67.78,2.71-.32,1.52-.72,3.41-1.2,5.65-.48,2.25-.92,4.75-1.32,7.52-.4,2.77-.74,5.73-1.02,8.9-.28,3.17-.42,6.43-.42,9.8s.14,6.39.42,9.56c.28,3.17.64,6.16,1.08,8.96.44,2.81.9,5.35,1.38,7.64.48,2.29.88,4.19,1.2,5.71ZM462.25,135.85c-3.77,0-6.96-.56-9.56-1.68-2.61-1.12-3.91-2.48-3.91-4.09,0-.8.36-1.56,1.08-2.29s1.68-1.34,2.89-1.86c1.2-.52,2.63-.94,4.27-1.26,1.64-.32,3.39-.48,5.23-.48s3.59.16,5.23.48c1.64.32,3.07.74,4.27,1.26,1.2.52,2.17,1.14,2.89,1.86s1.08,1.49,1.08,2.29c0,1.61-1.3,2.97-3.91,4.09-2.61,1.12-5.79,1.68-9.56,1.68Z"/>
    <path class="st0" d="M547.29,206.09c.16.88-.14,1.68-.9,2.41-.76.72-1.71,1.08-2.83,1.08h-22.85c-.56,0-1.04-.2-1.44-.6-.4-.32-.62-.74-.66-1.26-.04-.52-.02-.98.06-1.38,0-.24.04-.56.12-.96.08-.4.2-.88.36-1.44-1.28,1.61-2.97,2.95-5.05,4.03-2.09,1.08-4.89,1.62-8.42,1.62-.64,0-1.54-.02-2.71-.06-1.16-.04-2.43-.16-3.79-.36-1.36-.2-2.81-.5-4.33-.9-1.52-.4-2.97-1-4.33-1.8-2.57-1.52-4.63-3.81-6.19-6.86-1.56-3.05-2.35-7.38-2.35-12.99,0-2.57.34-5.07,1.02-7.52.68-2.44,1.9-4.59,3.67-6.43,1.12-1.12,2.36-2.08,3.73-2.89,1.36-.8,2.83-1.44,4.39-1.92,1.56-.48,3.15-.88,4.75-1.2,1.6-.32,3.13-.56,4.57-.72,2.08-.32,4.19-.5,6.31-.54,2.12-.04,4.23-.14,6.31-.3.4-.08.82-.16,1.26-.24.44-.08.86-.24,1.26-.48.56-.4,1-.86,1.32-1.38.32-.52.56-1.1.72-1.74.16-.88.2-1.8.12-2.77-.08-.96-.2-1.88-.36-2.77,0-.4-.02-.76-.06-1.08-.04-.32-.1-.68-.18-1.08-.08-.24-.34-1.06-.78-2.47-.44-1.4-1.12-2.83-2.04-4.27-.92-1.44-2.12-2.6-3.61-3.49-1.48-.88-3.31-.96-5.47-.24-1.2.4-1.94,1.74-2.22,4.03-.28,2.29-.14,5.23.42,8.84.4,2.49-.06,4.37-1.38,5.65-1.32,1.28-3.03,2.07-5.11,2.35-2.09.28-4.31.12-6.67-.48-2.37-.6-4.43-1.58-6.19-2.95-1.76-1.36-2.99-3.05-3.67-5.05-.68-2-.34-4.25,1.02-6.74,1.44-2.65,3.17-4.69,5.17-6.13,2-1.44,4.29-2.48,6.86-3.13,2.57-.64,5.37-1.02,8.42-1.14,3.05-.12,6.33-.18,9.86-.18.96,0,1.88.02,2.77.06.88.04,1.76.1,2.65.18,4.97.4,8.96,1.38,11.97,2.95s5.31,3.61,6.92,6.13c1.6,2.53,2.67,5.51,3.19,8.96.52,3.45.74,7.22.66,11.31v1.08c0,.32-.04.68-.12,1.08-.24,12.35,1,24.3,3.73,35.84.08.08.12.2.12.36ZM522.03,182.63c.08-1.04.16-2.11.24-3.19.08-1.08.08-2.14,0-3.19-.08-.96-.28-1.94-.6-2.95-.32-1-.92-1.82-1.8-2.46-1.36-1.04-3.03-1.34-4.99-.9-1.97.44-3.59,1.1-4.87,1.98-1.2.8-2.15,1.85-2.83,3.13-.68,1.28-1.18,2.63-1.5,4.03-.32,1.4-.52,2.85-.6,4.33-.08,1.48-.12,2.87-.12,4.15,0,5.29.58,9,1.74,11.13,1.16,2.12,2.99,3.19,5.47,3.19,2.08,0,3.73-.7,4.93-2.11,1.2-1.4,2.14-3.05,2.83-4.93.68-1.88,1.14-3.75,1.38-5.59.24-1.84.4-3.21.48-4.09.08-.4.12-.82.12-1.26s.04-.86.12-1.26Z"/>
  </g>
  <path class="st1" d="M118.75,108.88c-3.77,0-6.96-.56-9.56-1.68-2.61-1.12-3.91-2.48-3.91-4.09,0-.8.36-1.56,1.08-2.29.72-.72,1.68-1.34,2.89-1.86,1.2-.52,2.63-.94,4.27-1.26,1.64-.32,3.39-.48,5.23-.48s3.59.16,5.23.48c1.64.32,3.07.74,4.27,1.26,1.2.52,2.17,1.14,2.89,1.86.72.72,1.08,1.48,1.08,2.29,0,1.6-1.3,2.97-3.91,4.09-2.61,1.12-5.79,1.68-9.56,1.68Z"/>
  <circle class="st0" cx="122.3" cy="103.07" r="5.5"/>
  <path class="st1" d="M97.49,79.16c-.05.55-.34,1.04-.88,1.49s-1.23.8-2.09,1.08c-.85.28-1.85.48-2.99.59-1.14.1-2.34.11-3.6-.02-1.26-.12-2.44-.35-3.54-.67-1.34-.4-2.7-.93-3.82-1.78-.54-.41-1.18-1.28-1.41-1.92-.41-1.15-.61-2.47-.73-3.66-.11-1.13-.11-2.34,0-3.6.11-1.25.33-2.43.65-3.53.33-1.1.7-2.04,1.13-2.83.43-.78.91-1.4,1.45-1.85.54-.45,1.08-.64,1.63-.59,1.1.09,1.94,1.08,2.54,2.92.6,1.84.79,4.06.55,6.63-.07.7-.16,1.37-.28,2.01-.08.42.24.8.66.8.61,0,1.25.04,1.91.11,2.57.25,4.71.84,6.41,1.77,1.7.94,2.49,1.95,2.39,3.04Z"/>
  <path class="st1" d="M81.12,89c.01.55-.23,1.07-.72,1.57s-1.14.93-1.97,1.29c-.82.37-1.79.67-2.91.9-1.12.22-2.32.35-3.58.36-1.27,0-2.46-.09-3.59-.3-1.37-.26-2.78-.65-3.99-1.37-.58-.35-1.31-1.15-1.6-1.76-.52-1.1-.87-2.4-1.11-3.56-.23-1.12-.35-2.31-.37-3.58-.02-1.26.08-2.46.28-3.58.21-1.13.48-2.1.83-2.94.35-.82.76-1.49,1.25-1.99.49-.5,1.01-.75,1.56-.76,1.1-.02,2.04.87,2.83,2.64.79,1.77,1.21,3.95,1.23,6.53,0,.7-.01,1.38-.06,2.03-.03.43.32.77.75.73.61-.06,1.24-.09,1.9-.09,2.59-.02,4.77.35,6.56,1.1,1.79.76,2.68,1.68,2.7,2.78Z"/>
  <path class="st1" d="M67.91,103.45c.1.54-.05,1.09-.45,1.67s-.97,1.11-1.72,1.6c-.74.5-1.65.96-2.72,1.37-1.07.41-2.23.73-3.47.95-1.25.22-2.44.32-3.59.31-1.39-.02-2.85-.17-4.16-.68-.63-.25-1.48-.91-1.87-1.47-.7-1-1.26-2.22-1.69-3.32-.42-1.06-.73-2.22-.96-3.47-.23-1.24-.34-2.43-.33-3.58.02-1.15.12-2.16.33-3.03.2-.87.5-1.6.9-2.17.4-.58.87-.91,1.41-1.01,1.08-.2,2.16.51,3.23,2.12,1.08,1.61,1.85,3.7,2.31,6.23.12.68.21,1.33.27,1.97.04.45.47.75.91.63.58-.15,1.18-.29,1.82-.4,2.55-.45,4.76-.46,6.65-.02,1.89.45,2.93,1.2,3.12,2.29Z"/>
</svg>